HIERARCHY
ROOT Pelvis
{
	OFFSET 0.000000 0.000000 0.000000
	CHANNELS 6 Xposition Yposition Zposition Xrotation Yrotation Zrotation
	JOINT LeftUpLeg_virtual
	{
		OFFSET 0.000000 0.000000 0.000000
		CHANNELS 3 Xrotation Yrotation Zrotation
		JOINT LeftUpLeg
		{
			OFFSET 18.735201 -5.666702 -4.541200
			CHANNELS 3 Xrotation Yrotation Zrotation
			JOINT LeftLeg
			{
				OFFSET -0.021200 -31.938179 0.493100
				CHANNELS 3 Xrotation Yrotation Zrotation
				JOINT LeftFoot
				{
					OFFSET 0.021200 -31.938179 -4.336299
					CHANNELS 3 Xrotation Yrotation Zrotation
					JOINT LeftToeBase
					{
						OFFSET 0.943001 -26.722000 15.023500
						CHANNELS 3 Xrotation Yrotation Zrotation
						End Site
						{
							OFFSET 0 0 0
						}
					}
				}
			}
		}
	}
	JOINT RightUpLeg_virtual
	{
		OFFSET 0.000000 0.000000 0.000000
		CHANNELS 3 Xrotation Yrotation Zrotation
		JOINT RightUpLeg
		{
			OFFSET -18.735201 -5.666702 -4.541200
			CHANNELS 3 Xrotation Yrotation Zrotation
			JOINT RightLeg
			{
				OFFSET 0.018946 -31.938133 0.493100
				CHANNELS 3 Xrotation Yrotation Zrotation
				JOINT RightFoot
				{
					OFFSET -0.018946 -31.938126 -4.336299
					CHANNELS 3 Xrotation Yrotation Zrotation
					JOINT RightToeBase
					{
						OFFSET -0.943001 -26.722004 15.023500
						CHANNELS 3 Xrotation Yrotation Zrotation
						End Site
						{
							OFFSET 0 0 0
						}
					}
				}
			}
		}
	}
	JOINT Hips_virtual
	{
		OFFSET 0.000000 0.000000 0.000000
		CHANNELS 3 Xrotation Yrotation Zrotation
		JOINT Hips
		{
			OFFSET -0.000000 -0.000000 -0.000000
			CHANNELS 3 Xrotation Yrotation Zrotation
			JOINT Spine
			{
				OFFSET 0.000000 10.199997 -0.299500
				CHANNELS 3 Xrotation Yrotation Zrotation
				JOINT Spine1
				{
					OFFSET 0.000000 11.900002 -1.516600
					CHANNELS 3 Xrotation Yrotation Zrotation
					JOINT Spine2
					{
						OFFSET 0.000000 13.600006 -2.842500
						CHANNELS 3 Xrotation Yrotation Zrotation
						JOINT Neck_virtual
						{
							OFFSET 0.000000 0.000000 0.000000
							CHANNELS 3 Xrotation Yrotation Zrotation
							JOINT Neck
							{
								OFFSET 0.000000 9.624100 -2.890100
								CHANNELS 3 Xrotation Yrotation Zrotation
								JOINT Head
								{
									OFFSET 0.000000 14.068802 -1.351900
									CHANNELS 3 Xrotation Yrotation Zrotation
									End Site
									{
										OFFSET 0 0 0
									}
								}
							}
						}
						JOINT LeftShoulder_virtual
						{
							OFFSET 0.000000 0.000000 0.000000
							CHANNELS 3 Xrotation Yrotation Zrotation
							JOINT LeftShoulder
							{
								OFFSET 15.263000 10.923401 -0.547700
								CHANNELS 3 Xrotation Yrotation Zrotation
								JOINT LeftArm
								{
									OFFSET 25.438599 -2.830597 -13.032500
									CHANNELS 3 Xrotation Yrotation Zrotation
									JOINT LeftForeArm
									{
										OFFSET 29.960503 0.000000 0.000000
										CHANNELS 3 Xrotation Yrotation Zrotation
										JOINT LeftHand
										{
											OFFSET 27.849251 0.000000 0.000000
											CHANNELS 3 Xrotation Yrotation Zrotation
											End Site
											{
												OFFSET 0 0 0
											}
										}
									}
								}
							}
						}
						JOINT RightShoulder_virtual
						{
							OFFSET 0.000000 0.000000 0.000000
							CHANNELS 3 Xrotation Yrotation Zrotation
							JOINT RightShoulder
							{
								OFFSET -15.263000 10.923401 -0.547700
								CHANNELS 3 Xrotation Yrotation Zrotation
								JOINT RightArm
								{
									OFFSET -25.438599 -2.830597 -13.032500
									CHANNELS 3 Xrotation Yrotation Zrotation
									JOINT RightForeArm
									{
										OFFSET -29.960503 0.000000 0.000000
										CHANNELS 3 Xrotation Yrotation Zrotation
										JOINT RightHand
										{
											OFFSET -27.849251 0.000000 0.000000
											CHANNELS 3 Xrotation Yrotation Zrotation
											End Site
											{
												OFFSET 0 0 0
											}
										}
									}
								}
							}
						}
					}
				}
			}
		}
	}
}
MOTION
Frames: 14
Frame Time: 0.03333333
-1.535679 91.951477 7.179565 0.000000 0.000000 0.000000 -6.293141 7.307383 0.166617 -20.855820 11.976521 12.292747 30.596789 -1.767502 7.704394 -1.196950 -9.139934 -15.299345 0.000000 0.000000 0.000000 -7.115055 8.919870 -0.252878 7.288112 -9.760900 8.755353 17.263532 -10.257733 -6.364669 -17.170095 -16.527386 6.261572 0.000000 0.000000 0.000000 -7.207012 7.563725 0.148379 -0.663664 0.486033 -0.820639 3.037751 1.561900 3.706057 1.896785 0.595272 2.551488 0.000000 0.000000 0.000000 0.881421 0.644112 2.232289 5.097611 -1.520831 -0.548698 0.000000 0.000000 0.000000 1.135912 0.968937 2.234225 0.548279 -16.180138 -13.276079 2.992846 -4.734354 -70.875439 1.765545 -9.217714 1.033461 0.000000 0.000000 0.000000 1.560376 0.903728 2.109519 1.581436 8.455543 16.654368 28.366722 8.457679 59.293610 0.808470 10.266256 -0.156600 0.000000 0.000000 0.000000 
-1.409714 91.990395 7.209129 0.000000 0.000000 0.000000 -5.817858 6.561563 0.020449 -20.812630 12.333717 12.437436 30.244696 -1.855179 7.413882 -1.411575 -8.259843 -15.223570 0.000000 0.000000 0.000000 -6.660945 8.151707 -0.381867 6.823878 -9.804165 8.423126 16.919511 -10.189841 -6.336158 -16.876007 -15.695502 6.275781 0.000000 0.000000 0.000000 -6.715200 6.838148 0.009589 -0.641358 0.473307 -0.858145 2.913918 1.424883 3.774502 1.975932 0.424872 2.587210 0.000000 0.000000 0.000000 0.906442 0.498249 2.269410 4.913951 -1.384189 -0.516802 0.000000 0.000000 0.000000 1.185062 0.811595 2.254628 0.513962 -16.567179 -13.424928 3.681670 -3.436845 -71.125861 1.755271 -9.612601 1.041108 0.000000 0.000000 0.000000 1.635046 0.739029 2.148454 1.688589 7.678730 16.438534 29.805156 8.372520 58.481692 0.887938 10.001387 -0.017016 0.000000 0.000000 0.000000 
-1.310049 92.018150 7.187576 0.000000 0.000000 0.000000 -5.357460 5.592503 -0.195537 -20.786608 12.718040 12.667446 29.987693 -1.906886 7.139652 -1.556831 -7.203254 -15.095114 0.000000 0.000000 0.000000 -6.195943 7.153735 -0.579060 6.249208 -9.876217 8.067196 16.688628 -10.120687 -6.258672 -16.617024 -14.655127 6.305586 0.000000 0.000000 0.000000 -6.202844 5.894494 -0.195017 -0.626530 0.453356 -0.882670 2.814207 1.354785 3.863955 2.051689 0.301863 2.643713 0.000000 0.000000 0.000000 0.945660 0.393583 2.323484 4.746414 -1.237747 -0.488736 0.000000 0.000000 0.000000 1.219903 0.700797 2.304114 0.483634 -16.921032 -13.562412 4.186048 -2.484343 -71.511370 1.768706 -9.963398 1.053878 0.000000 0.000000 0.000000 1.697544 0.616727 2.204689 1.712682 7.295981 16.433447 30.016031 7.750546 57.746094 0.965495 9.286677 0.110929 0.000000 0.000000 0.000000 
-1.246108 92.044525 7.127724 0.000000 0.000000 0.000000 -4.921830 4.496259 -0.458194 -20.789810 13.072521 12.946916 29.829564 -1.939518 6.894815 -1.686720 -6.008778 -14.928473 0.000000 0.000000 0.000000 -5.741289 6.025909 -0.822885 5.600687 -9.949415 7.708407 16.510920 -10.045508 -6.132738 -16.284020 -13.454735 6.396107 0.000000 0.000000 0.000000 -5.696703 4.819227 -0.441153 -0.606005 0.433298 -0.881091 2.738634 1.346232 3.952609 2.130246 0.224810 2.696767 0.000000 0.000000 0.000000 1.005238 0.331999 2.367667 4.590144 -1.092541 -0.459054 0.000000 0.000000 0.000000 1.252022 0.639171 2.357965 0.469830 -17.223169 -13.623256 4.509406 -1.996723 -71.958502 1.797381 -10.197889 1.068436 0.000000 0.000000 0.000000 1.766556 0.541584 2.257670 1.671626 7.253914 16.563987 29.215960 6.787439 57.166354 1.029037 8.425148 0.195720 0.000000 0.000000 0.000000 
-1.217587 92.075615 7.022415 0.000000 0.000000 0.000000 -4.504218 3.347734 -0.739109 -20.787513 13.321564 13.212209 29.719246 -1.968159 6.690787 -1.863065 -4.737706 -14.731116 0.000000 0.000000 0.000000 -5.286897 4.844026 -1.087550 4.939679 -9.984419 7.378363 16.282534 -9.944551 -5.979586 -15.806525 -12.143439 6.581610 0.000000 0.000000 0.000000 -5.215492 3.697310 -0.701267 -0.572850 0.431472 -0.858650 2.676584 1.378642 4.019660 2.218811 0.184181 2.727767 0.000000 0.000000 0.000000 1.095221 0.300981 2.382960 4.438606 -0.957281 -0.420793 0.000000 0.000000 0.000000 1.287151 0.617166 2.386435 0.482351 -17.464259 -13.574405 4.690416 -1.972706 -72.375587 1.826660 -10.264912 1.076252 0.000000 0.000000 0.000000 1.849965 0.506823 2.283976 1.588912 7.479878 16.681202 27.729542 5.969701 56.799402 1.083360 7.634347 0.219143 0.000000 0.000000 0.000000 
-1.218624 92.130928 6.879917 0.000000 0.000000 0.000000 -4.091537 2.207616 -1.009939 -20.744181 13.456756 13.416938 29.570980 -1.999770 6.521541 -2.040224 -3.450864 -14.517711 0.000000 0.000000 0.000000 -4.845042 3.678769 -1.348831 4.322555 -9.980056 7.080088 15.920824 -9.832866 -5.804015 -15.243488 -10.793914 6.798736 0.000000 0.000000 0.000000 -4.773236 2.600221 -0.952756 -0.527680 0.430084 -0.827974 2.621884 1.417840 4.062483 2.324312 0.161502 2.727685 0.000000 0.000000 0.000000 1.215853 0.285931 2.364428 4.293059 -0.837550 -0.366937 0.000000 0.000000 0.000000 1.339916 0.615400 2.374502 0.517623 -17.639684 -13.419765 4.809130 -2.287140 -72.675719 1.848048 -10.250756 1.075796 0.000000 0.000000 0.000000 1.938543 0.493260 2.274056 1.508439 7.853107 16.703322 25.954184 5.820211 56.599490 1.125135 7.230302 0.174576 0.000000 0.000000 0.000000 
-1.236011 92.207748 6.726669 0.000000 0.000000 0.000000 -3.692949 1.138985 -1.252663 -20.651068 13.525210 13.546198 29.335420 -2.008749 6.367152 -2.135880 -2.192826 -14.274032 0.000000 0.000000 0.000000 -4.435572 2.579853 -1.585394 3.777018 -9.985145 6.796389 15.458214 -9.749286 -5.589674 -14.683396 -9.486935 6.967595 0.000000 0.000000 0.000000 -4.371056 1.578946 -1.180872 -0.474933 0.421136 -0.808117 2.568147 1.437262 4.083360 2.428746 0.135111 2.703398 0.000000 0.000000 0.000000 1.349527 0.272161 2.319491 4.151841 -0.737380 -0.295555 0.000000 0.000000 0.000000 1.405628 0.615487 2.328985 0.567719 -17.770107 -13.195759 4.909765 -2.874560 -72.819345 1.849812 -10.253738 1.070294 0.000000 0.000000 0.000000 2.021703 0.477018 2.230986 1.456873 8.300230 16.608964 24.252726 6.582264 56.520352 1.158646 7.344078 0.091971 0.000000 0.000000 0.000000 
-1.259868 92.301819 6.558292 0.000000 0.000000 0.000000 -3.311337 0.178459 -1.460268 -20.527044 13.558856 13.603905 28.983614 -1.973520 6.219256 -2.094851 -0.999268 -13.994380 0.000000 0.000000 0.000000 -4.054904 1.600176 -1.786812 3.274619 -10.041475 6.511125 14.987211 -9.715719 -5.329986 -14.138787 -8.266230 7.048744 0.000000 0.000000 0.000000 -4.007905 0.665151 -1.376841 -0.415893 0.388679 -0.814285 2.517524 1.426518 4.081614 2.525483 0.098888 2.668214 0.000000 0.000000 0.000000 1.483292 0.252545 2.268595 4.016536 -0.654527 -0.209693 0.000000 0.000000 0.000000 1.468472 0.605182 2.265857 0.617771 -17.874728 -12.980078 4.975784 -3.687462 -72.825786 1.826076 -10.296199 1.063470 0.000000 0.000000 0.000000 2.087555 0.447923 2.169264 1.439344 8.764880 16.433797 22.740454 8.206771 56.531556 1.177849 7.877362 -0.001424 0.000000 0.000000 0.000000 
-1.272862 92.404297 6.388927 0.000000 0.000000 0.000000 -2.957350 -0.657849 -1.634640 -20.385222 13.574770 13.600163 28.537642 -1.899747 6.085714 -1.915915 0.106117 -13.676019 0.000000 0.000000 0.000000 -3.721086 0.755053 -1.957968 2.782587 -10.140220 6.203445 14.573182 -9.717840 -5.027811 -13.530821 -7.140088 7.035710 0.000000 0.000000 0.000000 -3.671588 -0.132041 -1.543018 -0.370388 0.339294 -0.831166 2.484292 1.388799 4.059660 2.605167 0.053944 2.630333 0.000000 0.000000 0.000000 1.591442 0.228988 2.224278 3.889607 -0.587167 -0.116153 0.000000 0.000000 0.000000 1.516836 0.582419 2.205032 0.652695 -17.984356 -12.827468 4.948160 -4.702466 -72.721045 1.773937 -10.381435 1.062990 0.000000 0.000000 0.000000 2.142155 0.408539 2.104341 1.444822 9.224809 16.250417 21.394678 10.462351 56.527732 1.163625 8.707876 -0.074050 0.000000 0.000000 0.000000 
-1.273831 92.502785 6.209087 0.000000 0.000000 0.000000 -2.637472 -1.366612 -1.782115 -20.222144 13.576195 13.545418 28.003678 -1.789595 5.977821 -1.672720 1.092030 -13.341721 0.000000 0.000000 0.000000 -3.424515 0.035589 -2.103634 2.295059 -10.231220 5.888180 14.199383 -9.727154 -4.709838 -12.828250 -6.102133 6.968346 0.000000 0.000000 0.000000 -3.354038 -0.824172 -1.688573 -0.340834 0.300683 -0.867185 2.472061 1.343316 4.020240 2.659026 0.007784 2.597298 0.000000 0.000000 0.000000 1.661787 0.207383 2.191156 3.770235 -0.531704 -0.023914 0.000000 0.000000 0.000000 1.534039 0.555939 2.157949 0.668661 -18.101538 -12.762186 4.760228 -5.965183 -72.540584 1.689253 -10.429514 1.068907 0.000000 0.000000 0.000000 2.184076 0.367871 2.049003 1.447483 9.715121 16.093527 20.079107 13.151584 56.549195 1.115025 9.564351 -0.123347 0.000000 0.000000 0.000000 
-1.249782 92.600082 6.013653 0.000000 0.000000 0.000000 -2.342306 -1.972215 -1.910279 -20.026004 13.568248 13.451263 27.378123 -1.662755 5.900381 -1.477030 1.918267 -13.044679 0.000000 0.000000 0.000000 -3.155237 -0.568488 -2.233287 1.853705 -10.270661 5.591597 13.779859 -9.724357 -4.409623 -12.047804 -5.158888 6.881391 0.000000 0.000000 0.000000 -3.055194 -1.434081 -1.821832 -0.318857 0.286087 -0.895354 2.476509 1.300756 3.973252 2.695457 -0.028382 2.566562 0.000000 0.000000 0.000000 1.700155 0.194710 2.164347 3.658262 -0.484450 0.061579 0.000000 0.000000 0.000000 1.525408 0.534084 2.123721 0.663879 -18.211313 -12.790421 4.405523 -7.479253 -72.287321 1.574355 -10.399820 1.072354 0.000000 0.000000 0.000000 2.221045 0.341432 2.009062 1.440688 10.270274 15.991554 18.692718 16.160824 56.622470 1.036469 10.332218 -0.168968 0.000000 0.000000 0.000000 
-1.200891 92.696152 5.807468 0.000000 0.000000 0.000000 -2.064974 -2.504020 -2.030992 -19.802411 13.573239 13.333120 26.685691 -1.518542 5.844743 -1.338896 2.570669 -12.794350 0.000000 0.000000 0.000000 -2.895847 -1.095293 -2.360522 1.513856 -10.261976 5.336933 13.208088 -9.712789 -4.138155 -11.258248 -4.329999 6.798571 0.000000 0.000000 0.000000 -2.764240 -1.980704 -1.953038 -0.325124 0.278381 -0.897165 2.486508 1.272712 3.934842 2.715317 -0.049927 2.535639 0.000000 0.000000 0.000000 1.712075 0.196671 2.135458 3.552900 -0.444560 0.137054 0.000000 0.000000 0.000000 1.497163 0.525932 2.093288 0.642214 -18.300575 -12.873646 3.927169 -9.220292 -71.958024 1.444594 -10.362846 1.066491 0.000000 0.000000 0.000000 2.258739 0.336027 1.979116 1.418322 10.929101 15.910116 17.283478 19.437381 56.675376 0.949399 11.015587 -0.211305 0.000000 0.000000 0.000000 
-1.128538 92.797676 5.598606 0.000000 0.000000 0.000000 -1.798631 -2.977632 -2.151636 -19.592251 13.634195 13.210063 25.970177 -1.316800 5.798907 -1.218594 3.074438 -12.565288 0.000000 0.000000 0.000000 -2.629836 -1.567970 -2.488049 1.300335 -10.244485 5.143732 12.460176 -9.717720 -3.892407 -10.538266 -3.643589 6.733729 0.000000 0.000000 0.000000 -2.484429 -2.477275 -2.082472 -0.328487 0.279401 -0.887716 2.479549 1.263813 3.911150 2.727192 -0.055309 2.500799 0.000000 0.000000 0.000000 1.717917 0.213349 2.099962 3.451914 -0.411072 0.203876 0.000000 0.000000 0.000000 1.463604 0.534392 2.055955 0.614463 -18.329468 -12.971002 3.398042 -11.137489 -71.563560 1.318126 -10.377094 1.040923 0.000000 0.000000 0.000000 2.289930 0.349595 1.949777 1.397400 11.694550 15.799104 16.003903 22.887057 56.610312 0.871950 11.690002 -0.258494 0.000000 0.000000 0.000000 
-1.034773 92.905159 5.410671 0.000000 0.000000 0.000000 -1.535895 -3.417608 -2.272521 -19.417874 13.742750 13.086093 25.267773 -1.052843 5.763977 -1.101237 3.449689 -12.339515 0.000000 0.000000 0.000000 -2.357092 -2.007997 -2.613917 1.195063 -10.251626 5.001847 11.593301 -9.750007 -3.670980 -9.870238 -3.102898 6.687104 0.000000 0.000000 0.000000 -2.211786 -2.933597 -2.204614 -0.332394 0.280730 -0.861596 2.450220 1.275850 3.900054 2.735666 -0.044177 2.458455 0.000000 0.000000 0.000000 1.728095 0.242392 2.056027 3.354604 -0.385716 0.264147 0.000000 0.000000 0.000000 1.436566 0.556585 2.003817 0.586473 -18.287763 -13.051149 2.877387 -13.118720 -71.146037 1.208143 -10.517066 0.994018 0.000000 0.000000 0.000000 2.319000 0.381058 1.911094 1.392713 12.514519 15.603212 15.062754 26.340654 56.232425 0.817440 12.489383 -0.292626 0.000000 0.000000 0.000000 
